<?xml version="1.0" encoding="UTF-8"?>
<svg width="1440px" height="1024px" viewBox="0 0 1440 1024" version="1.1" xmlns="http://www.w3.org/2000/svg" xmlns:xlink="http://www.w3.org/1999/xlink">
    <!-- Generator: Sketch 48.1 (47250) - http://www.bohemiancoding.com/sketch -->
    <title>background90s</title>
    <desc>Created with Sketch.</desc>
    <defs>
        <polygon id="path-1" points="0 0.228520832 124.975913 0.228520832 124.975913 118.936311 0 118.936311"></polygon>
        <polygon id="path-3" points="0.0284423966 0.778396748 99.5546449 0.778396748 99.5546449 58 0.0284423966 58"></polygon>
        <polygon id="path-5" points="0.686707396 0.707216495 87.7435469 0.707216495 87.7435469 83.8939184 0.686707396 83.8939184"></polygon>
        <polygon id="path-7" points="0 0.0001 84.0889896 0.0001 84.0889896 67.6350691 0 67.6350691"></polygon>
    </defs>
    <g id="Welcome" stroke="none" stroke-width="1" fill="none" fill-rule="evenodd">
        <g id="background90s">
            <g id="Page-1" transform="translate(97.000000, 69.000000)">
                <g id="Group-3" transform="translate(0.000000, 662.000000)">
                    <mask id="mask-2" fill="white">
                        <use xlink:href="#path-1"></use>
                    </mask>
                    <g id="Clip-2"></g>
                    <path d="M1.49488557,118.674783 C0.340371686,118.058841 -0.289363163,116.457391 0.130460069,114.97913 L14.5094058,62.8704348 L55.4421709,78.5153623 L66.9873098,31.4573913 L108.025031,47.1023188 L119.885037,2.38492754 C120.30486,0.783478261 121.774242,-0.202028986 123.138667,0.413913043 C124.503093,0.906666667 125.342739,2.63130435 124.81796,4.23275362 L111.593528,54.8631884 L70.6607631,39.2182609 L59.1156242,86.2762319 L17.9729474,70.6313043 L5.16833886,116.826957 C4.74851562,118.428406 3.27913431,119.290725 1.91470881,118.797971 C1.70479719,118.797971 1.59984138,118.674783 1.49488557,118.674783" id="Fill-1" fill="#08FDD8" mask="url(#mask-2)"></path>
                </g>
                <path d="M51,395 C49.7586207,395 48.6206897,393.887647 48.4137931,392.280915 L42,337.89922 L84,330.854319 L77.3793103,285.618636 C77.1724138,283.888309 78.1034483,282.281577 79.4482759,282.034388 C80.8965517,281.787198 82.2413793,282.899551 82.4482759,284.506283 L90,336.045299 L47.7931034,343.0902 L53.4827586,391.415752 C53.6896552,393.146079 52.6551724,394.629216 51.3103448,394.876405 C51.3103448,395 51.1034483,395 51,395" id="Fill-4" fill="#FC0853"></path>
                <path d="M489.299435,77 L520.437733,133.902564 L527.831777,91.1008547 C528.144202,89.3538462 529.498041,88.3555556 530.956021,88.7299145 C532.414002,89.1042735 533.247134,90.7264957 532.934709,92.4735043 L522.937128,150 L487.737313,85.6102564 C468.367,100.459829 439.103248,123.046154 436.603853,125.666667 C435.770721,126.91453 434.312741,127.164103 433.167185,126.165812 C432.021629,125.167521 431.605063,123.295726 432.438194,121.798291 C432.85476,121.049573 434.000316,119.052991 487.112464,78.6222222 L489.299435,77 Z" id="Fill-6" fill="#08FDD8"></path>
                <path d="M361.299435,767 L392.437733,823.902564 L399.831777,781.100855 C400.144202,779.353846 401.498041,778.355556 402.956021,778.729915 C404.414002,779.104274 405.247134,780.726496 404.934709,782.473504 L394.937128,840 L359.737313,775.610256 C340.367,790.459829 311.103248,813.046154 308.603853,815.666667 C307.770721,816.91453 306.312741,817.164103 305.167185,816.165812 C304.021629,815.167521 303.605063,813.295726 304.438194,811.798291 C304.85476,811.049573 306.000316,809.052991 359.112464,768.622222 L361.299435,767 Z" id="Fill-8" fill="#FF931E"></path>
                <path d="M240.859061,52.9299429 L171.104467,36.9636627 C169.653405,36.6007927 168.824227,35.028356 169.031522,33.4559193 C169.342463,31.762526 170.689878,30.7948726 172.037292,31.036786 L241.895533,47.1240228 C243.346595,47.4868928 244.175773,49.0593295 243.968478,50.6317662 C243.657537,52.2042029 242.310122,53.2928129 240.859061,52.9299429" id="Fill-10" fill="#00AEEF"></path>
                <path d="M195.10122,112.928607 C193.652397,112.557397 192.824498,110.948821 193.031473,109.340245 L203.897646,43.5123638 C204.208108,41.7800511 205.553444,40.7901582 206.89878,41.0376314 C208.347603,41.4088413 209.175502,43.0174173 208.968527,44.6259933 L198.102354,110.453874 C197.895379,112.186187 196.550043,113.299816 195.10122,112.928607" id="Fill-12" fill="#00AEEF"></path>
                <path d="M18.1917286,62.8406792 C26.9484417,75.9738777 36.4348809,88.4875857 44.3576214,102.240275 C51.6548823,114.877881 58.4309104,128.134977 68.2300894,138.41852 C71.8787198,142.259361 78.6547478,138.666316 76.9868025,132.347513 C68.3343359,100.505701 49.6741972,74.3632024 35.8094014,45.6188434 C33.0989902,48.0968054 30.388579,50.5747673 27.5739212,53.1766274 C39.2495387,63.9557621 47.2765258,79.5669226 55.9289923,93.6913059 C64.060226,106.948402 69.6895415,121.940072 81.1566659,131.728022 C84.4925566,134.577679 88.9751598,130.736838 88.9751598,126.400404 C88.9751598,89.2309743 57.5969377,66.9293164 48.735978,33.7246259 C45.8170736,35.7069954 42.8981692,37.689365 39.9792648,39.7956327 C49.5699506,52.9288312 58.5351569,67.5488069 65.8324179,82.5404769 C71.3574869,93.815204 76.8825559,106.948402 87.6199542,112.028225 C90.9558449,113.6389 94.0832424,109.674161 94.187489,106.081116 C95.0214617,82.1687826 80.3226932,62.9645773 73.9636515,41.406308 C70.836254,43.0169833 67.6046098,44.6276586 64.4772123,46.2383339 C73.9636515,64.0796602 82.0948851,84.1511522 95.9596809,97.9038412 C100.129544,102.116377 105.44612,98.0277393 104.716394,91.8328344 C102.318723,72.2569347 93.3535163,53.5483217 83.5543373,37.8132631 C79.6972137,31.4944601 70.9405006,37.1937726 74.589131,44.0081681 C83.8670771,61.4778001 90.9558449,81.6731902 104.820641,94.9302869 C110.03297,99.8862108 117.434477,91.2133439 112.222148,86.1335218 C98.9828319,73.6198138 92.4152971,54.2917103 83.5543373,37.689365 C80.5311864,39.7956327 77.5080354,41.9019004 74.589131,43.88427 C83.8670771,58.7520419 92.4152971,76.2216739 94.7087219,94.9302869 C97.6276263,92.9479173 100.546531,90.9655477 103.465435,88.85928 C90.3303654,75.8499796 82.6161181,56.6457742 73.6509118,39.6717346 C70.6277608,33.972422 62.0795408,37.5654669 64.1644725,44.5037605 C70.0022813,64.4513545 84.8052964,83.7794579 83.9713237,105.83332 C86.160502,103.85095 88.3496802,101.86858 90.5388585,99.8862108 C86.160502,97.7799431 83.137351,91.8328344 80.635433,87.3725028 C77.7165286,82.0448845 75.3188571,76.4694701 72.5041993,71.0179537 C65.311185,57.0174685 56.5544718,43.2647795 47.4850189,30.8749696 C44.0448816,26.1668418 37.2688536,31.1227658 38.7283058,36.9459764 C43.1066624,53.6722198 52.488855,67.4249088 60.9328284,81.3014959 C68.9598154,94.4346945 78.5505013,109.426364 78.5505013,126.400404 C81.1566659,124.665831 83.7628305,122.807359 86.3689951,121.072786 C75.5273503,111.780428 70.5235142,95.5497774 62.3922806,83.4077636 C53.4270743,70.150667 46.4425531,55.0350989 35.0796753,44.3798624 C30.5970722,40.167327 23.7167976,45.3710472 26.8441951,51.9376464 C40.187758,79.6908207 58.6394035,104.966033 66.9791303,135.81666 C69.8980347,133.83429 72.8169391,131.85192 75.7358435,129.745653 C66.1451577,119.709907 59.6818694,106.700606 52.488855,94.4346945 C44.3576214,80.3103112 34.5584424,67.672705 25.6974827,54.1678122 C21.4233727,47.8490092 14.1261118,56.6457742 18.1917286,62.8406792" id="Fill-14" fill="#08FDD8"></path>
                <path d="M847.495209,841.735625 C846.340473,841.112978 845.710617,839.494096 846.130521,837.999743 L860.512234,785.323811 L901.452876,801.139044 L913.000237,753.568817 L954.045855,769.384049 L965.908144,724.179881 C966.328048,722.560998 967.797712,721.564763 969.1624,722.18741 C970.527088,722.685528 971.366897,724.428939 970.842017,726.047821 L957.405088,777.35393 L916.464445,761.538698 L904.917084,809.108925 L863.76649,793.293692 L851.169369,839.867684 C850.749465,841.486566 849.279801,842.358272 847.915113,841.860154 C847.705161,841.860154 847.600185,841.735625 847.495209,841.735625" id="Fill-16" fill="#03FFE2"></path>
                <path d="M971.326989,20.7703274 C971.850507,19.4031199 973.211653,18.6573704 974.468096,19.1545367 L1018.75771,36.1824848 L1005.46036,84.6562055 L1045.45712,98.3282806 L1032.15977,146.926293 L1070.16717,160.971243 C1071.52832,161.468409 1072.36594,163.208491 1071.84243,164.824282 C1071.42361,166.440073 1069.95776,167.434406 1068.59662,166.812948 L1025.45874,150.903624 L1038.75609,102.429903 L998.759327,88.757828 L1012.05668,40.0355241 L972.792839,24.8719499 C971.431692,24.3747836 970.698767,22.6347013 971.117582,21.0189106 C971.222285,21.0189106 971.326989,20.894619 971.326989,20.7703274" id="Fill-18" fill="#FF7BAC" transform="translate(1021.500000, 93.000000) rotate(-43.000000) translate(-1021.500000, -93.000000) "></path>
                <path d="M1150.7684,129.032422 C1149.83695,127.925353 1149.73345,126.203246 1150.56141,124.973169 L1178.29809,81.3054547 L1212.14098,111.688344 L1234.28892,74.2940188 C1235.11688,72.9409346 1236.7728,72.5719117 1237.91125,73.5559729 C1239.0497,74.5400341 1239.36018,76.5081564 1238.53222,77.8612405 L1213.38292,120.544894 L1179.33304,90.0389976 L1154.70122,128.786406 C1153.87326,130.139491 1152.21733,130.385506 1151.07889,129.401445 C1150.97539,129.278437 1150.8719,129.155429 1150.7684,129.032422" id="Fill-20" fill="#00AEEF"></path>
                <path d="M1197.29943,631 L1228.43773,687.902564 L1235.83178,645.100855 C1236.1442,643.353846 1237.49804,642.355556 1238.95602,642.729915 C1240.414,643.104274 1241.24713,644.726496 1240.93471,646.473504 L1230.93713,704 L1195.73731,639.610256 C1176.367,654.459829 1147.10325,677.046154 1144.60385,679.666667 C1143.77072,680.91453 1142.31274,681.164103 1141.16718,680.165812 C1140.02163,679.167521 1139.60506,677.295726 1140.43819,675.798291 C1140.85476,675.049573 1142.00032,673.052991 1195.11246,632.622222 L1197.29943,631 Z" id="Fill-22" fill="#00AEEF"></path>
                <path d="M1181.60002,485 C1181.07721,485 1180.55441,484.753028 1180.0316,484.382569 C1178.88143,483.39468 1178.67231,481.418903 1179.5088,480.060555 L1209.30875,432.271427 C1210.14524,430.91308 1211.81822,430.542622 1212.9684,431.653997 C1214.11857,432.641886 1214.32769,434.617664 1213.4912,435.976011 L1183.69125,483.765139 C1183.16844,484.506056 1182.33195,485 1181.60002,485" id="Fill-24" fill="#FDF400"></path>
                <path d="M1050,811 C1050,815.430769 1047.1,819 1043.5,819 C1039.9,819 1037,815.430769 1037,811 C1037,806.569231 1039.9,803 1043.5,803 C1047.1,803 1050,806.569231 1050,811" id="Fill-26" fill="#FF52DA"></path>
                <path d="M310,101 C310,105.430769 307.1,109 303.5,109 C299.9,109 297,105.430769 297,101 C297,96.5692308 299.9,93 303.5,93 C307,93 310,96.5692308 310,101" id="Fill-28" fill="#FF7BAC"></path>
                <path d="M645.5,873 C641.9,873 639,869.430769 639,865 C639,860.569231 641.9,857 645.5,857 C649.1,857 652,860.569231 652,865 C652,869.430769 649.1,873 645.5,873 Z" id="Fill-30" fill="#FF7BAC"></path>
                <g id="Group-34" transform="translate(1146.000000, 828.000000)">
                    <mask id="mask-4" fill="white">
                        <use xlink:href="#path-3"></use>
                    </mask>
                    <g id="Clip-33"></g>
                    <path d="M12.99274,7.94229787 C38.676174,10.6571915 65.2954417,15.4699574 89.21119,27.6869787 C89.7310976,25.5891064 90.1470236,23.3678298 90.6669312,21.2699574 C61.3441442,19.7891064 32.3333016,13.6188936 3.01051458,11.891234 C-0.4208754,11.6444255 -0.836801458,17.5678298 2.28264397,18.6784681 C5.71403395,19.9125106 9.24940544,20.1593191 12.8887584,20.1593191 C16.840056,20.1593191 20.687372,20.4061277 24.6386696,20.7763404 C33.0611722,21.6401702 41.3796934,22.997617 49.594233,24.8486809 C56.3530315,26.3295319 63.1118299,27.316766 69.8706283,28.9210213 C76.5254453,30.5252766 83.9081328,32.7465532 89.3151715,38.0529362 C89.7310976,36.0784681 90.1470236,34.2274043 90.6669312,32.2529362 C87.7554488,32.8699574 84.7399849,32.1295319 81.8285025,31.5125106 C78.7090571,30.7720851 75.5896116,30.2784681 72.4701662,29.7848511 C64.6715526,28.5508085 56.7689575,27.5635745 48.8663624,26.4529362 C33.5810798,24.2316596 18.2957972,21.3933617 2.90653306,19.9125106 C0.0990321721,19.6657021 -1.148746,24.9720851 1.45079186,26.3295319 C4.57023729,27.9337872 7.68968272,28.5508085 11.0170912,28.6742128 C15.1763518,28.9210213 19.3356123,29.0444255 23.4948729,29.4146383 C31.9173756,30.2784681 40.3398782,31.2657021 48.7623809,32.4997447 C64.3596081,34.8444255 80.7886873,36.4486809 95.0341548,44.5933617 C95.5540624,42.4954894 95.9699884,40.2742128 96.489896,38.1763404 C93.1624876,38.6699574 90.0430421,38.0529362 86.8196152,37.4359149 C82.7643361,36.6954894 78.7090571,35.9550638 74.653778,35.091234 C66.1272938,33.4869787 57.4968281,32.1295319 48.8663624,30.8954894 C33.7890428,28.797617 18.8157048,24.3550638 3.53042215,25.5891064 C0.618939744,25.8359149 -0.4208754,30.1550638 2.07468095,32.0061277 C7.48171969,36.2018723 14.9683887,35.9550638 21.2072796,36.8188936 C28.9019117,37.9295319 36.4925622,39.1635745 44.0832128,40.891234 C57.7047911,43.9763404 71.9502586,44.716766 84.8439664,51.010383 C85.363874,48.9125106 85.7798,46.691234 86.2997076,44.5933617 C66.2312753,45.5805957 46.6827506,38.2997447 26.6143183,37.9295319 C24.118762,37.9295319 22.6630208,41.7550638 24.5346881,43.8529362 C30.8775604,50.7635745 42.0035825,49.5295319 49.9061776,49.7763404 C54.4813642,49.8997447 59.1605323,50.6401702 63.735719,51.2571915 C69.5586838,52.1210213 75.6935931,53.2316596 80.8926689,56.810383 C81.1006319,54.7125106 81.3085949,52.6146383 81.6205395,50.3933617 C74.2378519,52.3678298 66.4392384,49.5295319 59.2645139,48.1720851 C49.8021961,46.4444255 40.3398782,44.716766 30.9815419,43.2359149 C28.3820041,42.8657021 25.7824662,46.5678298 28.1740411,49.0359149 C33.1651538,54.2188936 40.5478413,52.3678298 46.5787691,52.2444255 C50.3221036,52.2444255 50.3221036,45.210383 46.5787691,45.3337872 C44.2911758,45.3337872 41.899601,45.5805957 39.6120076,45.704 C37.4283958,45.8274043 34.1009874,46.0742128 32.3333016,44.2231489 C31.397468,46.197617 30.4616344,48.0486809 29.5258007,50.0231489 C39.1960816,51.6274043 48.9703439,53.3550638 58.6406248,55.0827234 C66.7511829,56.5635745 75.0697041,59.4018723 83.1802622,57.1805957 C85.7798,56.4401702 85.9877631,52.2444255 83.9081328,50.7635745 C74.9657225,44.5933617 63.4237744,43.9763404 53.3375675,42.8657021 C48.9703439,42.4954894 44.4991388,42.6188936 40.1319152,42.2486809 C36.5965437,42.0018723 31.605431,41.7550638 28.7979301,38.7933617 C28.0700595,40.7678298 27.4461705,42.7422979 26.7182999,44.716766 C46.7867321,45.0869787 66.3352568,52.3678298 86.4036891,51.3805957 C89.003227,51.2571915 90.7709127,46.3210213 87.8594303,44.9635745 C75.0697041,38.6699574 61.1361811,37.1891064 47.5146027,34.4742128 C40.1319152,32.9933617 32.7492277,31.5125106 25.2625587,30.4018723 C21.9351502,29.9082553 18.5037602,29.291234 15.0723702,28.9210213 C11.6409803,28.4274043 8.10560878,28.1805957 5.09014486,25.8359149 C4.57023729,27.9337872 4.15431123,30.1550638 3.63440366,32.2529362 C18.6077417,31.0188936 33.2691353,35.2146383 48.0345103,37.4359149 C56.872939,38.7933617 65.6073862,40.1508085 74.3418335,41.7550638 C81.4125764,43.1125106 89.419153,45.8274043 96.5938775,44.716766 C99.1934154,44.3465532 100.961101,39.904 98.0496187,38.2997447 C84.2200773,30.4018723 68.7268317,28.1805957 53.6495121,25.9593191 C45.538954,24.7252766 37.3244143,23.6146383 29.1098747,22.7508085 C24.6386696,22.2571915 20.1674645,21.8869787 15.6962593,21.516766 C11.8489433,21.1465532 8.00162727,22.010383 4.36227426,20.0359149 C3.84236669,22.1337872 3.42644063,24.3550638 2.90653306,26.4529362 C18.2957972,27.810383 33.5810798,30.6486809 48.8663624,32.9933617 C56.7689575,34.104 64.5675711,35.091234 72.4701662,36.3252766 C79.0210016,37.3125106 85.571837,39.904 92.2266539,38.5465532 C94.3062842,38.1763404 95.2421178,34.3508085 93.5784136,32.7465532 C82.6603546,22.010383 66.9591459,20.7763404 53.4415491,18.1848511 C45.3309909,16.5805957 37.2204328,14.9763404 29.0058932,13.9891064 C24.5346881,13.4954894 20.0634829,12.8784681 15.6962593,12.8784681 C11.7449618,12.8784681 7.79366424,13.1252766 3.9463482,11.6444255 C3.73838518,13.8657021 3.42644063,16.210383 3.2184776,18.4316596 C32.5412647,20.1593191 61.5521072,26.3295319 90.8748942,27.810383 C93.6823951,27.9337872 95.0341548,22.7508085 92.3306354,21.3933617 C67.4790535,8.6827234 40.0279337,3.62314894 13.3046845,0.784851064 C9.24940544,0.538042553 9.24940544,7.44868085 12.99274,7.94229787" id="Fill-32" fill="#FC0853" mask="url(#mask-4)"></path>
                </g>
                <g id="Group-37" transform="translate(706.000000, 0.000000)">
                    <mask id="mask-6" fill="white">
                        <use xlink:href="#path-5"></use>
                    </mask>
                    <g id="Clip-36"></g>
                    <path d="M6.34045176,57.4825567 C26.01104,37.9264832 47.6486871,19.1083747 71.6675106,7.66991663 C70.7357459,5.70200986 69.8039812,3.85709727 68.8722165,1.8891905 C47.3380988,25.3810775 23.2157459,45.3061336 1.57809882,68.5520323 C-0.906607059,71.2579041 2.30280471,75.8086885 5.09809882,73.9637759 C8.30751059,71.9958691 10.8957459,69.1670031 13.3804518,66.0921488 C16.1757459,62.7713061 19.0745694,59.6964518 22.0769224,56.7445917 C28.4957459,50.3488947 35.1216282,44.3221802 42.0580988,38.6644482 C47.6486871,34.1136638 53.0322165,29.0709027 58.7263341,24.6431125 C64.4204518,20.2153223 70.9428047,15.5415437 77.7757459,14.8035787 C76.9475106,13.0816602 76.1192753,11.3597418 75.29104,9.6378234 C73.53104,12.4666894 71.0463341,14.5575903 68.5616282,16.5254971 C65.9733929,18.616398 63.3851576,20.8302931 60.9004518,23.1671824 C54.6886871,28.9479086 48.5804518,34.7286347 42.3686871,40.5093608 C30.2557459,51.8248247 17.8322165,62.5253178 6.13339294,74.4557526 C3.95927529,76.6696477 6.23692235,81.4664204 8.92868706,80.2364787 C12.0345694,78.8835428 14.6228047,76.5466535 17.1075106,73.8407817 C20.2133929,70.519939 23.1122165,67.0761022 26.3216282,63.8782537 C32.7404518,57.3595625 39.2628047,50.9638655 45.8886871,44.9371511 C58.2086871,33.498693 70.7357459,20.9532873 85.6439812,14.6805845 C84.7122165,12.7126777 83.7804518,10.8677651 82.8486871,8.89985836 C80.8816282,11.9747127 78.2933929,14.311602 75.6016282,16.5254971 C72.2886871,19.3543631 68.9757459,22.183229 65.6628047,25.1350892 C58.7263341,31.1618037 51.7898635,37.4345065 45.0604518,43.8302035 C33.2580988,54.8996791 20.0063341,64.3702304 10.0675106,78.0225836 C8.10045176,80.6054612 9.96398118,84.5412748 12.8628047,83.8033097 C19.1780988,82.2043855 24.25104,75.8086885 29.2204518,71.2579041 C35.2251576,65.6001721 41.4369224,60.1884285 47.7522165,55.0226732 C59.1404518,45.7981103 69.7004518,34.4826463 82.5380988,28.0869494 C81.6063341,26.1190426 80.6745694,24.27413 79.7428047,22.3062232 C66.1804518,39.6484016 48.0628047,50.9638655 33.7757459,67.3220905 C32.0157459,69.4129915 33.2580988,73.348805 35.8463341,73.2258108 C44.4392753,72.8568283 51.4792753,62.648312 57.2769224,56.1296208 C60.5898635,52.4397956 64.3169224,48.9959588 67.8369224,45.6751161 C72.3922165,41.37032 77.4651576,37.065524 83.2628047,35.3436056 C82.1239812,33.6216871 81.0886871,32.0227629 79.9498635,30.3008445 C75.9122165,37.803489 68.7686871,42.3542734 62.8675106,47.3970345 C55.2063341,54.0387199 47.5451576,60.8033994 39.9875106,67.5680789 C37.9169224,69.4129915 38.2275106,74.2097642 41.4369224,73.9637759 C48.0628047,73.4717992 52.1004518,65.9691546 56.2416282,60.9263935 C58.8298635,57.728545 54.7922165,52.8087781 52.1004518,56.0066266 C50.4439812,57.9745334 48.9945694,60.0654343 47.3380988,62.0333411 C45.7851576,64.0012479 43.7145694,66.8301139 41.3333929,67.0761022 C41.85104,69.1670031 42.2651576,71.3808983 42.7828047,73.4717992 C50.5475106,66.4611313 58.4157459,59.5734576 66.2839812,52.685784 C72.8063341,47.028052 80.3639812,41.9852909 84.8157459,33.6216871 C86.1616282,31.0388095 83.8839812,27.840961 81.5028047,28.578926 C71.5639812,31.6537804 63.0745694,40.8783433 55.3098635,48.6269762 C51.9969224,51.9478189 48.9945694,55.7606383 45.6816282,59.2044751 C42.9898635,62.0333411 39.3663341,66.0921488 35.6392753,66.215143 C36.3639812,68.1830498 36.9851576,70.1509565 37.7098635,72.1188633 C51.9969224,55.6376441 70.1145694,44.4451744 83.6769224,26.8570076 C85.4369224,24.5201183 83.7804518,19.7233456 80.8816282,21.0762815 C68.1475106,27.3489843 57.3804518,37.9264832 46.3028047,47.3970345 C40.1945694,52.5627898 34.0863341,57.728545 28.1851576,63.1402887 C25.4933929,65.6001721 22.8016282,68.0600556 20.2133929,70.6429332 C17.5216282,73.2258108 14.8298635,75.9316827 11.4133929,76.915636 C12.3451576,78.8835428 13.2769224,80.7284554 14.2086871,82.6963622 C23.9404518,69.2899973 36.8816282,59.9424402 48.4769224,49.2419471 C55.4133929,42.8462501 62.4533929,36.4505531 69.5969224,30.1778503 C75.3945694,25.1350892 82.6416282,20.4613106 87.0933929,13.6966311 C88.6463341,11.2367476 87.3004518,6.68596325 84.2980988,7.91590498 C69.9075106,13.9426195 57.69104,25.2580834 45.7851576,36.3275589 C39.3663341,42.3542734 32.9475106,48.3809879 26.6322165,54.5306965 C23.2157459,57.9745334 19.7992753,61.4183702 16.3828047,64.8622071 C13.4839812,67.8140672 11.2063341,71.6268866 7.47927529,73.348805 C8.41104,75.3167118 9.34280471,77.1616244 10.2745694,79.1295312 C21.9733929,67.1990964 34.3969224,56.4986033 46.5098635,45.1831394 C52.7216282,39.4024133 58.8298635,33.498693 65.0416282,27.840961 C70.2180988,23.0441883 76.4298635,19.3543631 80.2604518,12.9586661 C81.5028047,10.8677651 79.8463341,7.54692246 77.7757459,7.7929108 C63.6957459,9.39183505 51.8933929,21.6912524 40.9192753,31.1618037 C34.2933929,36.8195356 27.5639812,42.4772676 21.2486871,48.6269762 C17.8322165,51.9478189 14.3122165,55.2686616 11.2063341,58.9584868 C8.41104,62.2793294 5.71927529,65.7231663 2.19927529,67.9370614 C3.33809882,69.781974 4.58045176,71.5038924 5.71927529,73.348805 C27.3569224,49.9799121 51.4792753,30.1778503 73.0133929,6.68596325 C75.0839812,4.47206813 72.9098635,-0.324704617 70.2180988,0.905237113 C45.1639812,12.7126777 22.8016282,32.0227629 2.30280471,52.4397956 C-0.596018824,55.3916558 3.54515765,60.3114227 6.34045176,57.4825567" id="Fill-35" fill="#FF931E" mask="url(#mask-6)"></path>
                </g>
                <path d="M169,816 C169,820.430769 166.1,824 162.5,824 C158.9,824 156,820.430769 156,816 C156,811.569231 158.9,808 162.5,808 C166.1,808 169,811.569231 169,816" id="Fill-38" fill="#FF7BAC"></path>
            </g>
            <g id="Page-1" transform="translate(-0.425261, 611.301570) rotate(85.000000) translate(0.425261, -611.301570) translate(-42.925261, 577.301570)">
                <mask id="mask-8" fill="white">
                    <use xlink:href="#path-7"></use>
                </mask>
                <g id="Clip-2"></g>
                <path d="M5.461,46.1614 C24.461,30.2614 45.361,14.9614 68.561,5.6614 C67.661,4.0614 66.761,2.5614 65.861,0.9614 C45.061,20.0614 21.761,36.2614 0.861,55.1614 C-1.539,57.3614 1.561,61.0614 4.261,59.5614 C7.361,57.9614 9.861,55.6614 12.261,53.1614 C14.961,50.4614 17.761,47.9614 20.661,45.5614 C26.861,40.3614 33.261,35.4614 39.961,30.8614 C45.361,27.1614 50.561,23.0614 56.061,19.4614 C61.561,15.8614 67.861,12.0614 74.461,11.4614 C73.661,10.0614 72.861,8.6614 72.061,7.2614 C70.361,9.5614 67.961,11.2614 65.561,12.8614 C63.061,14.5614 60.561,16.3614 58.161,18.2614 C52.161,22.9614 46.261,27.6614 40.261,32.3614 C28.561,41.5614 16.561,50.2614 5.261,59.9614 C3.161,61.7614 5.361,65.6614 7.961,64.6614 C10.961,63.5614 13.461,61.6614 15.861,59.4614 C18.861,56.7614 21.661,53.9614 24.761,51.3614 C30.961,46.0614 37.261,40.8614 43.661,35.9614 C55.561,26.6614 67.661,16.4614 82.061,11.3614 C81.161,9.7614 80.261,8.2614 79.361,6.6614 C77.461,9.1614 74.961,11.0614 72.361,12.8614 C69.161,15.1614 65.961,17.4614 62.761,19.8614 C56.061,24.7614 49.361,29.8614 42.861,35.0614 C31.461,44.0614 18.661,51.7614 9.061,62.8614 C7.161,64.9614 8.961,68.1614 11.761,67.5614 C17.861,66.2614 22.761,61.0614 27.561,57.3614 C33.361,52.7614 39.361,48.3614 45.461,44.1614 C56.461,36.6614 66.661,27.4614 79.061,22.2614 C78.161,20.6614 77.261,19.1614 76.361,17.5614 C63.261,31.6614 45.761,40.8614 31.961,54.1614 C30.261,55.8614 31.461,59.0614 33.961,58.9614 C42.261,58.6614 49.061,50.3614 54.661,45.0614 C57.861,42.0614 61.461,39.2614 64.861,36.5614 C69.261,33.0614 74.161,29.5614 79.761,28.1614 C78.661,26.7614 77.661,25.4614 76.561,24.0614 C72.661,30.1614 65.761,33.8614 60.061,37.9614 C52.661,43.3614 45.261,48.8614 37.961,54.3614 C35.961,55.8614 36.261,59.7614 39.361,59.5614 C45.761,59.1614 49.661,53.0614 53.661,48.9614 C56.161,46.3614 52.261,42.3614 49.661,44.9614 C48.061,46.5614 46.661,48.2614 45.061,49.8614 C43.561,51.4614 41.561,53.7614 39.261,53.9614 C39.761,55.6614 40.161,57.4614 40.661,59.1614 C48.161,53.4614 55.761,47.8614 63.361,42.2614 C69.661,37.6614 76.961,33.5614 81.261,26.7614 C82.561,24.6614 80.361,22.0614 78.061,22.6614 C68.461,25.1614 60.261,32.6614 52.761,38.9614 C49.561,41.6614 46.661,44.7614 43.461,47.5614 C40.861,49.8614 37.361,53.1614 33.761,53.2614 C34.461,54.8614 35.061,56.4614 35.761,58.0614 C49.561,44.6614 67.061,35.5614 80.161,21.2614 C81.861,19.3614 80.261,15.4614 77.461,16.5614 C65.161,21.6614 54.761,30.2614 44.061,37.9614 C38.161,42.1614 32.261,46.3614 26.561,50.7614 C23.961,52.7614 21.361,54.7614 18.861,56.8614 C16.261,58.9614 13.661,61.1614 10.361,61.9614 C11.261,63.5614 12.161,65.0614 13.061,66.6614 C22.461,55.7614 34.961,48.1614 46.161,39.4614 C52.861,34.2614 59.661,29.0614 66.561,23.9614 C72.161,19.8614 79.161,16.0614 83.461,10.5614 C84.961,8.5614 83.661,4.8614 80.761,5.8614 C66.861,10.7614 55.061,19.9614 43.561,28.9614 C37.361,33.8614 31.161,38.7614 25.061,43.7614 C21.761,46.5614 18.461,49.3614 15.161,52.1614 C12.361,54.5614 10.161,57.6614 6.561,59.0614 C7.461,60.6614 8.361,62.1614 9.261,63.7614 C20.561,54.0614 32.561,45.3614 44.261,36.1614 C50.261,31.4614 56.161,26.6614 62.161,22.0614 C67.161,18.1614 73.161,15.1614 76.861,9.9614 C78.061,8.2614 76.461,5.5614 74.461,5.7614 C60.861,7.0614 49.461,17.0614 38.861,24.7614 C32.461,29.3614 25.961,33.9614 19.861,38.9614 C16.561,41.6614 13.161,44.3614 10.161,47.3614 C7.461,50.0614 4.861,52.8614 1.461,54.6614 C2.561,56.1614 3.761,57.5614 4.861,59.0614 C25.761,40.0614 49.061,23.9614 69.861,4.8614 C71.861,3.0614 69.761,-0.8386 67.161,0.1614 C42.961,9.7614 21.361,25.4614 1.561,42.0614 C-1.239,44.4614 2.761,48.4614 5.461,46.1614" id="Fill-1" fill="#FF931E" mask="url(#mask-8)"></path>
            </g>
        </g>
    </g>
</svg>