<?xml version="1.0" encoding="utf-8"?>
<!-- Generator: Adobe Illustrator 18.0.0, SVG Export Plug-In . SVG Version: 6.00 Build 0)  -->
<!DOCTYPE svg PUBLIC "-//W3C//DTD SVG 1.1//EN" "http://www.w3.org/Graphics/SVG/1.1/DTD/svg11.dtd" [
	<!ENTITY ns_extend "http://ns.adobe.com/Extensibility/1.0/">
	<!ENTITY ns_ai "http://ns.adobe.com/AdobeIllustrator/10.0/">
	<!ENTITY ns_graphs "http://ns.adobe.com/Graphs/1.0/">
	<!ENTITY ns_vars "http://ns.adobe.com/Variables/1.0/">
	<!ENTITY ns_imrep "http://ns.adobe.com/ImageReplacement/1.0/">
	<!ENTITY ns_sfw "http://ns.adobe.com/SaveForWeb/1.0/">
	<!ENTITY ns_custom "http://ns.adobe.com/GenericCustomNamespace/1.0/">
	<!ENTITY ns_adobe_xpath "http://ns.adobe.com/XPath/1.0/">
]>
<svg version="1.1" id="Layer_1" xmlns:x="&ns_extend;" xmlns:i="&ns_ai;" xmlns:graph="&ns_graphs;"
	 xmlns="http://www.w3.org/2000/svg" xmlns:xlink="http://www.w3.org/1999/xlink" x="0px" y="0px" width="1280px" height="800px"
	 viewBox="0 0 1280 800" enable-background="new 0 0 1280 800" xml:space="preserve">
<metadata>
	<sfw  xmlns="&ns_sfw;">
		<slices></slices>
		<sliceSourceBounds  width="1194.4" height="714.5" x="26.4" y="-731.8" bottomLeftOrigin="true"></sliceSourceBounds>
	</sfw>
</metadata>
<path fill="#08FDD8" d="M27.8,646.8c-1.1-0.5-1.7-1.8-1.3-3l13.7-42.3l39,12.7l11-38.2l39.1,12.7l11.3-36.3c0.4-1.3,1.8-2.1,3.1-1.6
	c1.3,0.4,2.1,1.8,1.6,3.1L132.7,595l-39-12.7l-11,38.2l-39.2-12.7l-12.2,37.5c-0.4,1.3-1.8,2-3.1,1.6
	C28,646.9,27.9,646.8,27.8,646.8z"/>
<path fill="#FC0853" d="M131,292.3c-1.2,0-2.3-0.9-2.5-2.2l-6.2-44l40.6-5.7l-6.4-36.6c-0.2-1.4,0.7-2.7,2-2.9
	c1.4-0.2,2.7,0.7,2.9,2l7.3,41.7l-40.8,5.7l5.5,39.1c0.2,1.4-0.8,2.6-2.1,2.8C131.3,292.3,131.1,292.3,131,292.3z"/>
<path fill="#08FDD8" d="M402.5,126.6l29.9,45.6l7.1-34.3c0.3-1.4,1.6-2.2,3-1.9c1.4,0.3,2.2,1.6,1.9,3l-9.6,46.1l-33.8-51.6
	c-18.6,11.9-46.7,30-49.1,32.1c-0.8,1-2.2,1.2-3.3,0.4c-1.1-0.8-1.5-2.3-0.7-3.5c0.4-0.6,1.5-2.2,52.5-34.6L402.5,126.6z"/>
<path fill="#FF931E" d="M372.3,635.6l29.9,45.6l7.1-34.3c0.3-1.4,1.6-2.2,3-1.9c1.4,0.3,2.2,1.6,1.9,3l-9.6,46.1l-33.8-51.6
	c-18.6,11.9-46.7,30-49.1,32.1c-0.8,1-2.2,1.2-3.3,0.4c-1.1-0.8-1.5-2.3-0.7-3.5c0.4-0.6,1.5-2.2,52.5-34.6L372.3,635.6z"/>
<g>
	<path fill="#00AEEF" d="M257.8,60.2L190.5,47c-1.4-0.3-2.2-1.6-2-2.9c0.3-1.4,1.6-2.2,2.9-2l67.4,13.3c1.4,0.3,2.2,1.6,2,2.9
		C260.5,59.6,259.2,60.5,257.8,60.2z"/>
	<path fill="#00AEEF" d="M213.5,107.4c-1.4-0.3-2.2-1.6-2-2.9l10.5-53.2c0.3-1.4,1.6-2.2,2.9-2c1.4,0.3,2.2,1.6,2,2.9l-10.5,53.2
		C216.2,106.8,214.9,107.7,213.5,107.4z"/>
</g>
<path fill="#08FDD8" d="M43.8,67.3C52.2,77.9,61.3,88,68.9,99.1c7,10.2,13.5,20.9,22.9,29.2c3.5,3.1,10,0.2,8.4-4.9
	C91.9,97.7,74,76.6,60.7,53.4c-2.6,2-5.2,4-7.9,6.1C64,68.2,71.7,80.8,80,92.2c7.8,10.7,13.2,22.8,24.2,30.7
	c3.2,2.3,7.5-0.8,7.5-4.3c0-30-30.1-48-38.6-74.8c-2.8,1.6-5.6,3.2-8.4,4.9c9.2,10.6,17.8,22.4,24.8,34.5
	c5.3,9.1,10.6,19.7,20.9,23.8c3.2,1.3,6.2-1.9,6.3-4.8c0.8-19.3-13.3-34.8-19.4-52.2c-3,1.3-6.1,2.6-9.1,3.9
	c9.1,14.4,16.9,30.6,30.2,41.7c4,3.4,9.1,0.1,8.4-4.9c-2.3-15.8-10.9-30.9-20.3-43.6c-3.7-5.1-12.1-0.5-8.6,5
	c8.9,14.1,15.7,30.4,29,41.1c5,4,12.1-3,7.1-7.1c-12.7-10.1-19-25.7-27.5-39.1c-2.9,1.7-5.8,3.4-8.6,5c8.9,12,17.1,26.1,19.3,41.2
	c2.8-1.6,5.6-3.2,8.4-4.9c-12.6-10.5-20-26-28.6-39.7c-2.9-4.6-11.1-1.7-9.1,3.9c5.6,16.1,19.8,31.7,19,49.5
	c2.1-1.6,4.2-3.2,6.3-4.8c-4.2-1.7-7.1-6.5-9.5-10.1c-2.8-4.3-5.1-8.8-7.8-13.2c-6.9-11.3-15.3-22.4-24-32.4
	c-3.3-3.8-9.8,0.2-8.4,4.9C67.7,59.9,76.7,71,84.8,82.2c7.7,10.6,16.9,22.7,16.9,36.4c2.5-1.4,5-2.9,7.5-4.3
	c-10.4-7.5-15.2-20.6-23-30.4C77.6,73.2,70.9,61,60,52.4c-4.3-3.4-10.9,0.8-7.9,6.1c12.8,22.4,30.5,42.8,38.5,67.7
	c2.8-1.6,5.6-3.2,8.4-4.9c-9.2-8.1-15.4-18.6-22.3-28.5c-7.8-11.4-17.2-21.6-25.7-32.5C46.9,55.2,39.9,62.3,43.8,67.3L43.8,67.3z"/>
<path fill="#03FFE2" d="M835.5,667.2c-1.1-0.5-1.7-1.8-1.3-3l13.7-42.3l39,12.7l11-38.2l39.1,12.7l11.3-36.3
	c0.4-1.3,1.8-2.1,3.1-1.6c1.3,0.4,2.1,1.8,1.6,3.1l-12.8,41.2l-39-12.7l-11,38.2l-39.2-12.7L839,665.7c-0.4,1.3-1.8,2-3.1,1.6
	C835.7,667.3,835.6,667.2,835.5,667.2z"/>
<path fill="#FF7BAC" d="M883.4,68.1c0.5-1.1,1.8-1.7,3-1.3l42.3,13.7l-12.7,39l38.2,11l-12.7,39.1l36.3,11.3
	c1.3,0.4,2.1,1.8,1.6,3.1c-0.4,1.3-1.8,2.1-3.1,1.6l-41.2-12.8l12.7-39l-38.2-11l12.7-39.2l-37.5-12.2c-1.3-0.4-2-1.8-1.6-3.1
	C883.3,68.3,883.4,68.2,883.4,68.1z"/>
<path fill="#00AEEF" d="M1130.3,120.3c-0.9-0.9-1-2.3-0.2-3.3l26.8-35.5l32.7,24.7l21.4-30.4c0.8-1.1,2.4-1.4,3.5-0.6
	c1.1,0.8,1.4,2.4,0.6,3.5l-24.3,34.7l-32.9-24.8l-23.8,31.5c-0.8,1.1-2.4,1.3-3.5,0.5C1130.5,120.5,1130.4,120.4,1130.3,120.3z"/>
<path fill="#00AEEF" d="M1174.1,525.2l29.9,45.6l7.1-34.3c0.3-1.4,1.6-2.2,3-1.9c1.4,0.3,2.2,1.6,1.9,3l-9.6,46.1l-33.8-51.6
	c-18.6,11.9-46.7,30-49.1,32.1c-0.8,1-2.2,1.2-3.3,0.4c-1.1-0.8-1.5-2.3-0.7-3.5c0.4-0.6,1.5-2.2,52.5-34.6L1174.1,525.2z"/>
<path fill="#FDF400" d="M1158.7,408.4c-0.5,0-1-0.2-1.5-0.5c-1.1-0.8-1.3-2.4-0.5-3.5l28.5-38.7c0.8-1.1,2.4-1.4,3.5-0.5
	c1.1,0.8,1.3,2.4,0.5,3.5l-28.5,38.7C1160.2,408,1159.4,408.4,1158.7,408.4z"/>
<path fill="#FF52DA" d="M1033.7,671.3c0,3.6-2.9,6.5-6.5,6.5l0,0c-3.6,0-6.5-2.9-6.5-6.5l0,0c0-3.6,2.9-6.5,6.5-6.5l0,0
	C1030.8,664.8,1033.7,667.7,1033.7,671.3L1033.7,671.3z"/>
<path fill="#FF7BAC" d="M323.9,97.9c0,3.6-2.9,6.5-6.5,6.5l0,0c-3.6,0-6.5-2.9-6.5-6.5l0,0c0-3.6,2.9-6.5,6.5-6.5l0,0
	C320.9,91.4,323.9,94.3,323.9,97.9L323.9,97.9z"/>
<path fill="#FF7BAC" d="M1019.3,517.8c0,3.6-2.9,6.5-6.5,6.5l0,0c-3.6,0-6.5-2.9-6.5-6.5l0,0c0-3.6,2.9-6.5,6.5-6.5l0,0
	C1016.4,511.3,1019.3,514.2,1019.3,517.8L1019.3,517.8z"/>
<path fill="#FC0853" d="M1137.7,691.2c24.7,2.2,50.3,6.1,73.3,16c0.5-1.7,0.9-3.5,1.4-5.2c-28.2-1.2-56.1-6.2-84.3-7.6
	c-3.3-0.2-3.7,4.6-0.7,5.5c3.3,1,6.7,1.2,10.2,1.2c3.8,0,7.5,0.2,11.3,0.5c8.1,0.7,16.1,1.8,24,3.3c6.5,1.2,13,2,19.5,3.3
	c6.4,1.3,13.5,3.1,18.7,7.4c0.4-1.6,0.8-3.1,1.3-4.7c-2.8,0.5-5.7-0.1-8.5-0.6c-3-0.6-6-1-9-1.4c-7.5-1-15.1-1.8-22.7-2.7
	c-14.7-1.8-29.4-4.1-44.2-5.3c-2.7-0.2-3.9,4.1-1.4,5.2c3,1.3,6,1.8,9.2,1.9c4,0.2,8,0.3,12,0.6c8.1,0.7,16.2,1.5,24.3,2.5
	c15,1.9,30.8,3.2,44.5,9.8c0.5-1.7,0.9-3.5,1.4-5.2c-3.2,0.4-6.2-0.1-9.3-0.6c-3.9-0.6-7.8-1.2-11.7-1.9c-8.2-1.3-16.5-2.4-24.8-3.4
	c-14.5-1.7-28.9-5.3-43.6-4.3c-2.8,0.2-3.8,3.7-1.4,5.2c5.2,3.4,12.4,3.2,18.4,3.9c7.4,0.9,14.7,1.9,22,3.3
	c13.1,2.5,26.8,3.1,39.2,8.2c0.5-1.7,0.9-3.5,1.4-5.2c-19.3,0.8-38.1-5.1-57.4-5.4c-2.4,0-3.8,3.1-2,4.8c6.1,5.6,16.8,4.6,24.4,4.8
	c4.4,0.1,8.9,0.7,13.3,1.2c5.6,0.7,11.5,1.6,16.5,4.5c0.2-1.7,0.4-3.4,0.7-5.2c-7.1,1.6-14.6-0.7-21.5-1.8c-9.1-1.4-18.2-2.8-27.2-4
	c-2.5-0.3-5,2.7-2.7,4.7c4.8,4.2,11.9,2.7,17.7,2.6c3.6,0,3.6-5.7,0-5.6c-2.2,0-4.5,0.2-6.7,0.3c-2.1,0.1-5.3,0.3-7-1.2
	c-0.9,1.6-1.8,3.1-2.7,4.7c9.3,1.3,18.7,2.7,28,4.1c7.8,1.2,15.8,3.5,23.6,1.7c2.5-0.6,2.7-4,0.7-5.2c-8.6-5-19.7-5.5-29.4-6.4
	c-4.2-0.3-8.5-0.2-12.7-0.5c-3.4-0.2-8.2-0.4-10.9-2.8c-0.7,1.6-1.3,3.2-2,4.8c19.3,0.3,38.1,6.2,57.4,5.4c2.5-0.1,4.2-4.1,1.4-5.2
	c-12.3-5.1-25.7-6.3-38.8-8.5c-7.1-1.2-14.2-2.4-21.4-3.3c-3.2-0.4-6.5-0.9-9.8-1.2c-3.3-0.4-6.7-0.6-9.6-2.5
	c-0.5,1.7-0.9,3.5-1.4,5.2c14.4-1,28.5,2.4,42.7,4.2c8.5,1.1,16.9,2.2,25.3,3.5c6.8,1.1,14.5,3.3,21.4,2.4c2.5-0.3,4.2-3.9,1.4-5.2
	c-13.3-6.4-28.2-8.2-42.7-10c-7.8-1-15.7-1.9-23.6-2.6c-4.3-0.4-8.6-0.7-12.9-1c-3.7-0.3-7.4,0.4-10.9-1.2c-0.5,1.7-0.9,3.5-1.4,5.2
	c14.8,1.1,29.5,3.4,44.2,5.3c7.6,0.9,15.1,1.7,22.7,2.7c6.3,0.8,12.6,2.9,19,1.8c2-0.3,2.9-3.4,1.3-4.7
	c-10.5-8.7-25.6-9.7-38.6-11.8c-7.8-1.3-15.6-2.6-23.5-3.4c-4.3-0.4-8.6-0.9-12.8-0.9c-3.8,0-7.6,0.2-11.3-1
	c-0.2,1.8-0.5,3.7-0.7,5.5c28.2,1.4,56.1,6.4,84.3,7.6c2.7,0.1,4-4.1,1.4-5.2c-23.9-10.3-50.3-14.4-76-16.7
	C1134.1,685.2,1134.1,690.8,1137.7,691.2L1137.7,691.2z"/>
<path fill="#FF931E" d="M709.5,63.5c19-15.9,39.9-31.2,63.1-40.5c-0.9-1.6-1.8-3.1-2.7-4.7c-20.8,19.1-44.1,35.3-65,54.2
	c-2.4,2.2,0.7,5.9,3.4,4.4c3.1-1.6,5.6-3.9,8-6.4c2.7-2.7,5.5-5.2,8.4-7.6c6.2-5.2,12.6-10.1,19.3-14.7c5.4-3.7,10.6-7.8,16.1-11.4
	c5.5-3.6,11.8-7.4,18.4-8c-0.8-1.4-1.6-2.8-2.4-4.2c-1.7,2.3-4.1,4-6.5,5.6c-2.5,1.7-5,3.5-7.4,5.4c-6,4.7-11.9,9.4-17.9,14.1
	c-11.7,9.2-23.7,17.9-35,27.6c-2.1,1.8,0.1,5.7,2.7,4.7c3-1.1,5.5-3,7.9-5.2c3-2.7,5.8-5.5,8.9-8.1c6.2-5.3,12.5-10.5,18.9-15.4
	c11.9-9.3,24-19.5,38.4-24.6c-0.9-1.6-1.8-3.1-2.7-4.7c-1.9,2.5-4.4,4.4-7,6.2c-3.2,2.3-6.4,4.6-9.6,7c-6.7,4.9-13.4,10-19.9,15.2
	c-11.4,9-24.2,16.7-33.8,27.8c-1.9,2.1-0.1,5.3,2.7,4.7c6.1-1.3,11-6.5,15.8-10.2c5.8-4.6,11.8-9,17.9-13.2
	c11-7.5,21.2-16.7,33.6-21.9c-0.9-1.6-1.8-3.1-2.7-4.7C767.3,49,749.8,58.2,736,71.5c-1.7,1.7-0.5,4.9,2,4.8
	c8.3-0.3,15.1-8.6,20.7-13.9c3.2-3,6.8-5.8,10.2-8.5c4.4-3.5,9.3-7,14.9-8.4c-1.1-1.4-2.1-2.7-3.2-4.1c-3.9,6.1-10.8,9.8-16.5,13.9
	c-7.4,5.4-14.8,10.9-22.1,16.4c-2,1.5-1.7,5.4,1.4,5.2c6.4-0.4,10.3-6.5,14.3-10.6c2.5-2.6-1.4-6.6-4-4c-1.6,1.6-3,3.3-4.6,4.9
	c-1.5,1.6-3.5,3.9-5.8,4.1c0.5,1.7,0.9,3.5,1.4,5.2c7.5-5.7,15.1-11.3,22.7-16.9c6.3-4.6,13.6-8.7,17.9-15.5
	c1.3-2.1-0.9-4.7-3.2-4.1c-9.6,2.5-17.8,10-25.3,16.3c-3.2,2.7-6.1,5.8-9.3,8.6c-2.6,2.3-6.1,5.6-9.7,5.7c0.7,1.6,1.3,3.2,2,4.8
	c13.8-13.4,31.3-22.5,44.4-36.8c1.7-1.9,0.1-5.8-2.7-4.7c-12.3,5.1-22.7,13.7-33.4,21.4c-5.9,4.2-11.8,8.4-17.5,12.8
	c-2.6,2-5.2,4-7.7,6.1c-2.6,2.1-5.2,4.3-8.5,5.1c0.9,1.6,1.8,3.1,2.7,4.7c9.4-10.9,21.9-18.5,33.1-27.2c6.7-5.2,13.5-10.4,20.4-15.5
	c5.6-4.1,12.6-7.9,16.9-13.4c1.5-2,0.2-5.7-2.7-4.7c-13.9,4.9-25.7,14.1-37.2,23.1c-6.2,4.9-12.4,9.8-18.5,14.8
	c-3.3,2.8-6.6,5.6-9.9,8.4c-2.8,2.4-5,5.5-8.6,6.9c0.9,1.6,1.8,3.1,2.7,4.7c11.3-9.7,23.3-18.4,35-27.6c6-4.7,11.9-9.5,17.9-14.1
	c5-3.9,11-6.9,14.7-12.1c1.2-1.7-0.4-4.4-2.4-4.2c-13.6,1.3-25,11.3-35.6,19c-6.4,4.6-12.9,9.2-19,14.2c-3.3,2.7-6.7,5.4-9.7,8.4
	c-2.7,2.7-5.3,5.5-8.7,7.3c1.1,1.5,2.3,2.9,3.4,4.4c20.9-19,44.2-35.1,65-54.2c2-1.8-0.1-5.7-2.7-4.7c-24.2,9.6-45.8,25.3-65.6,41.9
	C702.8,61.8,706.8,65.8,709.5,63.5L709.5,63.5z"/>
<path fill="#FF7BAC" d="M746.1,170.1c0,3.6-2.9,6.5-6.5,6.5l0,0c-3.6,0-6.5-2.9-6.5-6.5l0,0c0-3.6,2.9-6.5,6.5-6.5l0,0
	C743.2,163.6,746.1,166.5,746.1,170.1L746.1,170.1z"/>
</svg>
